<svg xmlns="http://www.w3.org/2000/svg" viewBox="0 0 3000 3000" width="3000" height="3000"><g transform="translate(627.0 1157.0) rotate(0.0 967.0 843.0) scale(3.5577368819949813 3.55797537273274)"><svg width="543.604" height="473.865" viewBox="0 0 543.604 473.865"><linearGradient id="a"><stop offset="0" stop-color="#9c56b6"/><stop offset=".07" stop-color="#af70c3"/><stop offset=".152" stop-color="#bf86ce"/><stop offset=".249" stop-color="#cb97d6"/><stop offset=".368" stop-color="#d4a2dc"/><stop offset=".535" stop-color="#d9a9df"/><stop offset="1" stop-color="#daabe0"/></linearGradient><linearGradient xmlns:xlink="http://www.w3.org/1999/xlink" id="c" gradientUnits="userSpaceOnUse" x1="162.501" x2="314.691" xlink:href="#a" y1="416.793" y2="416.793"/><linearGradient id="b"><stop offset="0" stop-color="#9c56b6"/><stop offset="1" stop-color="#daabe0"/></linearGradient><linearGradient xmlns:xlink="http://www.w3.org/1999/xlink" id="d" gradientUnits="userSpaceOnUse" x1="160.552" x2="383.052" xlink:href="#b" y1="465.272" y2="465.272"/><linearGradient xmlns:xlink="http://www.w3.org/1999/xlink" id="e" gradientUnits="userSpaceOnUse" x1="141.12" x2="684.613" xlink:href="#b" y1="188.818" y2="188.818"/><linearGradient xmlns:xlink="http://www.w3.org/1999/xlink" id="f" gradientUnits="userSpaceOnUse" x1="-113.229" x2="430.375" xlink:href="#a" y1="162.524" y2="162.524"/><path d="M195.855 372.458h152.19v88.67h-152.19z" fill="url(#c)"/><path d="M383.052 473.865h-222.5v-.448c0-9.244 7.494-16.738 16.738-16.738h189.024c9.244 0 16.738 7.494 16.738 16.738z" fill="url(#d)"/><path d="M523.93 377.565H19.637c-10.825 0-19.6-8.775-19.6-19.6V.07H543.53v357.895c0 10.825-8.775 19.6-19.6 19.6z" fill="url(#e)"/><path d="M0 0h543.604v325.049H0z" fill="url(#f)"/><g fill="#fff"><path d="m517.943 298.007-490.863.741V26.738l490.863-.741z"/><circle cx="271.784" cy="353.138" r="9.793"/></g></svg></g><g transform="translate(964.0 474.0) rotate(0.0 588.0 416.0) scale(4.066797846257059 4.067345861280041)"><svg width="289.171" height="204.556" viewBox="0 0 289.171 204.556"><linearGradient id="g" gradientUnits="userSpaceOnUse" x1="284.742" x2="19.037" y1="51.649" y2="165.756"><stop offset="0" stop-color="#fff"/><stop offset=".267" stop-color="#f9f1f9"/><stop offset=".622" stop-color="#2F8F71"/><stop offset="1" stop-color="#2D8B6F"/></linearGradient><linearGradient id="h" gradientUnits="userSpaceOnUse" x1="0" x2="289.145" y1="11.779" y2="11.779"><stop offset="0" stop-color="#1A614B"/><stop offset="1" stop-color="#2F8F71"/></linearGradient><path d="M276.163 204.556H13.034c-7.184 0-13.008-5.824-13.008-13.008L0 23.557l148.794-10.259 140.351 10.259s.026 108.573.026 167.99c0 7.185-5.824 13.009-13.008 13.009z" fill="url(#g)"/><path d="M276.137 0H13.008C5.824 0 0 5.824 0 13.008v10.549h289.145V13.008C289.145 5.824 283.321 0 276.137 0z" fill="url(#h)"/><g fill="#fff"><path d="M19.421 184.803a2.317 2.317 0 0 1-2.317-2.317v-7.892a2.317 2.317 0 1 1 4.634 0v7.892a2.318 2.318 0 0 1-2.317 2.317z"/><path d="M19.421 187.257a4.995 4.995 0 0 1-4.989-4.989v-.29a.5.5 0 0 1 1 0v.29c0 2.199 1.789 3.989 3.989 3.989s3.989-1.789 3.989-3.989v-.29a.5.5 0 0 1 1 0v.29a4.996 4.996 0 0 1-4.989 4.989z"/><path d="M19.348 194.063a.5.5 0 0 1-.5-.5v-6.733a.5.5 0 0 1 1 0v6.733a.5.5 0 0 1-.5.5z"/><ellipse cx="30.1" cy="12.383" rx="3.379" ry="3.402"/><ellipse cx="42.456" cy="12.383" rx="3.379" ry="3.402"/><ellipse cx="17.744" cy="12.383" rx="3.379" ry="3.402"/></g></svg></g><g transform="translate(959.0 467.0) rotate(0.0 599.0 424.5) scale(3.5694067872359443 3.575941369724539)"><svg width="335.63" height="237.42" viewBox="0 0 335.63 237.42"><g><g><linearGradient id="i" gradientUnits="userSpaceOnUse" x1="67.507" y1="198.379" x2="471.076" y2="-81.625"><stop offset="0" style="stop-color:#2f8f71"/><stop offset=".14" style="stop-color:#339173"/><stop offset=".268" style="stop-color:#3e977b"/><stop offset=".391" style="stop-color:#50a188"/><stop offset=".512" style="stop-color:#6baf9a"/><stop offset=".631" style="stop-color:#8cc1b1"/><stop offset=".749" style="stop-color:#b6d8cd"/><stop offset=".863" style="stop-color:#e6f2ee"/><stop offset=".915" style="stop-color:#fff"/></linearGradient><path style="fill:url(#i)" d="M320.531 237.42H15.129c-8.339 0-15.098-6.76-15.098-15.098L0 27.342l172.699-11.908L335.6 27.342s.03 126.017.03 194.98c0 8.338-6.76 15.098-15.099 15.098z"/><linearGradient id="j" gradientUnits="userSpaceOnUse" x1="330.963" y1="14.779" x2="9.732" y2="12.694"><stop offset="0" style="stop-color:#2f8f71"/><stop offset=".994" style="stop-color:#1a614b"/></linearGradient><path style="fill:url(#j)" d="M320.501 0H15.098C6.76 0 0 6.759 0 15.098v12.244h335.6V15.098C335.6 6.759 328.84 0 320.501 0z"/><g><path style="fill:#fff" d="M22.943 214.493h-.804a2.287 2.287 0 0 1-2.287-2.287v-9.964a2.287 2.287 0 0 1 2.287-2.287h.804a2.287 2.287 0 0 1 2.287 2.287v9.964a2.286 2.286 0 0 1-2.287 2.287zm-.486 10.668a.5.5 0 0 1-.5-.5v-7.815a.5.5 0 0 1 1 0v7.815a.5.5 0 0 1-.5.5z"/><path style="fill:#fff" d="M22.541 217.262a5.717 5.717 0 0 1-5.71-5.71v-.336a.5.5 0 0 1 1 0v.336c0 2.597 2.113 4.71 4.71 4.71s4.71-2.113 4.71-4.71v-.336a.5.5 0 0 1 1 0v.336a5.716 5.716 0 0 1-5.71 5.71z"/></g><g><ellipse style="fill:#fff" cx="34.936" cy="14.372" rx="3.921" ry="3.948"/><ellipse style="fill:#fff" cx="49.277" cy="14.372" rx="3.921" ry="3.948"/><ellipse style="fill:#fff" cx="20.595" cy="14.372" rx="3.921" ry="3.948"/></g></g></g></svg></g><g transform="translate(189.0 801.0) rotate(0.0 440.5 354.0) scale(3.608836529126711 3.6073859699180693)"><svg width="244.123" height="196.264" viewBox="0 0 244.123 196.264"><linearGradient id="k" gradientUnits="userSpaceOnUse" x1="261.748" x2="-34.989" y1="40.707" y2="162.694"><stop offset="0" stop-color="#fff"/><stop offset=".785" stop-color="#f2e2f3"/></linearGradient><path d="m232.207 196.264-220.649-.404c-6.395-.011-11.57-5.205-11.558-11.6L.316 11.558C.327 5.163 5.521-.012 11.916 0l220.649.403c6.395.012 11.569 5.205 11.558 11.6l-.316 172.703c-.012 6.395-5.205 11.569-11.6 11.558z" fill="url(#k)"/><path d="m166.55 30.858-59.531 102.229-31.677-53.525a1.601 1.601 0 0 0-2.757.001l-55.852 94.491c-.677 1.146.149 2.594 1.48 2.594h210.925a1.719 1.719 0 0 0 1.58-2.396L169.407 31.034c-.518-1.21-2.194-1.313-2.857-.176z" fill="#4148ac"/><circle cx="45.257" cy="42.89" fill="#ffc431" r="24.328"/></svg></g><g transform="translate(1636.0 226.0) rotate(0.0 490.0 248.5) scale(3.584399814196418 3.597148337133138)"><svg width="273.407" height="138.165" viewBox="0 0 273.407 138.165"><path d="M268.554 134.827H5.987V4.167h262.567zm-259.567-3h256.567V7.167H8.987z"/><g fill="#f73b0f"><path d="M1.06 124.039h15.938v14.126H1.06zM0 .171h15.938v14.126H0zM257.468 0h15.938v14.126h-15.938zm-.032 124.039h15.938v14.126h-15.938z"/></g></svg></g><g transform="translate(1950.0 1373.0) rotate(0.0 222.5 150.0) scale(3.556983677841191 3.539154849821862)"><svg width="125.106" height="84.766" viewBox="0 0 125.106 84.766"><linearGradient id="l" gradientUnits="userSpaceOnUse" x1="0" x2="125.106" y1="42.383" y2="42.383"><stop offset=".201" stop-color="#2f8f71"/><stop offset=".994" stop-color="#1a614b"/></linearGradient><path d="M0 0h125.106v84.766H0z" fill="url(#l)"/><g fill="#fff"><circle cx="35.585" cy="41.777" r="9.574"/><circle cx="89.521" cy="41.777" r="9.574"/><circle cx="62.33" cy="41.777" r="9.574"/></g></svg></g><g transform="translate(2264.0 368.0) rotate(0.0 90.0 97.5) scale(3.7326586898368 3.68515543796655)"><svg width="48.223" height="52.915" viewBox="0 0 48.223 52.915"><path d="M48.223 40.66 30.912 21.198l11.216-9.453L0 0l6.383 41.873 10.46-8.816 17.338 19.858z" fill="#4148ac"/></svg></g><g transform="translate(367.0 1285.0) rotate(0.0 1197.5 560.0) scale(3.5646458572712825 3.574277963938088)"><svg width="671.876" height="313.35" viewBox="0 0 671.876 313.35"><linearGradient id="m" gradientUnits="userSpaceOnUse" x1="138.959" x2="138.959" y1="427.059" y2="113.709"><stop offset=".07" stop-color="#fb8896"/><stop offset=".185" stop-color="#fb9398"/><stop offset=".498" stop-color="#fcae9e"/><stop offset=".78" stop-color="#fdbda1"/><stop offset="1" stop-color="#fdc3a2"/></linearGradient><linearGradient id="n" gradientUnits="userSpaceOnUse" x1="550.015" x2="550.015" y1="415.479" y2="120.283"><stop offset="0" stop-color="#fb8896"/><stop offset=".177" stop-color="#fc999a"/><stop offset=".475" stop-color="#fcb09e"/><stop offset=".756" stop-color="#fdbea1"/><stop offset="1" stop-color="#fdc3a2"/></linearGradient><linearGradient id="o" gradientUnits="userSpaceOnUse" x1="343.744" x2="343.113" y1="152.564" y2="140.992"><stop offset="0" stop-color="#fdc3a2"/><stop offset=".25" stop-color="#fdbfa1"/><stop offset=".521" stop-color="#fcb29e"/><stop offset=".801" stop-color="#fc9c9a"/><stop offset="1" stop-color="#fb8896"/></linearGradient><linearGradient id="p" gradientUnits="userSpaceOnUse" x1="335.634" x2="335.634" y1="100.266" y2="46.482"><stop offset="0" stop-color="#231f20"/><stop offset="0"/><stop offset=".136" stop-color="#130804"/><stop offset=".445" stop-color="#38180c"/><stop offset=".693" stop-color="#502211"/><stop offset=".849" stop-color="#582613"/></linearGradient><path d="m277.918 205.981-22.511-34.277s-49.391 59.251-92.618 84.664c-70.116 41.219-121.663 13.619-124.983-43.283C34.813 161.803 37.1 6.193 37.1 6.193c-.022-7.2-7.411-7.352-8.53-3.239-1.509-3.885-7.278-3.809-8.707-.038-1.923-4.456-8.058-3.298-8.835.076C8.691-1.197 2.231-.054 2.307 6.23c0 0-1.327 149.076-2.272 195.745-2.125 104.961 93.063 134.787 172.143 93.488 42.416-22.153 105.74-89.482 105.74-89.482z" fill="url(#m)"/><path d="M10.076 64.284a.96.96 0 0 1-.961-.961V1.057c.748.371 1.448 1.019 1.922 1.843v60.423a.96.96 0 0 1-.961.961zm8.834-.062a.96.96 0 0 1-.961-.961L17.966.68c.702.363 1.546 1.264 1.898 2.237l.007 60.345c0 .53-.431.96-.961.96zm8.699.037a.96.96 0 0 1-.961-.961L26.628.692c1.069.479 1.877 1.834 1.942 2.262v60.344a.96.96 0 0 1-.961.961z" fill="#fb8596"/><path d="M545.338 14.829c-6.591-.397-7.637 7.454-2.462 9.47-5.32 1.488-4.887 9.809.352 10.847-5.398.63-5.715 9.539.439 10.632-4.513.132-6.984 10.897 2.227 11.263l38.443-.159c28.944 0 52.086 22.419 52.04 51.363-.058 37.081-.497 80.541-1.992 108.318-3.004 55.797-44.411 70.4-92.207 48.264s-85.773-60.396-85.773-60.396l-28.252 26.59s49.553 43.283 90.319 62.968c52.69 25.442 99.595 18.944 126.846-7.955 17.302-17.079 24.06-34.502 24.876-63.834.671-24.123 1.26-76.399 1.679-122.354.425-46.518-37.17-84.451-83.689-84.451z" fill="url(#n)"/><path d="m629.185 38.284-7.16-4.178a82.429 82.429 0 0 0-39.005-9.807h-40.144c-.855.119-2.144.968-2.57 1.675l43.524.211a77.577 77.577 0 0 1 36.841 9.306l7.622 4.448a.94.94 0 1 0 .892-1.655zm-3.916 9.352-7.934-4.241c-11.992-6.439-26.31-8.91-39.922-8.909l-34.184.658c-1.492.068-2.862 1.207-3.197 1.948l38.192-.719c12.862 0 26.439 2.299 37.758 8.408l8.396 4.511a.94.94 0 1 0 .891-1.656zm-2.981 9.646-7.781-4.178c-11.992-6.439-27.916-7.841-41.528-7.84l-29.312.513c-1.246.01-2.471.941-3.032 2.04l33.155-.666c12.862 0 28.045 1.23 39.364 7.339l8.242 4.448a.94.94 0 1 0 .892-1.656z" fill="#fb8596"/><path d="M356.117 152.497v-11.486l1.318-.152c9.757-1.129 17.115-9.388 17.115-19.211v-5.256h3.61a4.282 4.282 0 0 0 4.277-4.277 4.28 4.28 0 0 0-4.277-4.275h-3.61V79.208l-61.082.225-1.059 28.407h-3.705a4.28 4.28 0 0 0-4.275 4.275 4.281 4.281 0 0 0 4.275 4.277h3.705v5.256c0 9.776 7.32 18.029 17.028 19.197l1.311.158v11.779c-4.677 24.321 29.489 26.219 25.369-.285z" fill="#fdc3a2"/><path d="m356.117 152.497-25.37.073v-11.589h25.363z" fill="url(#o)"/><g fill="#fff"><circle cx="329.417" cy="114.352" opacity=".67" r="11.307"/><circle cx="357.685" cy="114.352" opacity=".67" r="11.307"/><path d="M329.556 126.252c-6.485 0-11.761-5.276-11.761-11.761s5.276-11.761 11.761-11.761 11.761 5.276 11.761 11.761-5.276 11.761-11.761 11.761zm0-22.521c-5.934 0-10.761 4.827-10.761 10.761s4.827 10.761 10.761 10.761c5.933 0 10.761-4.827 10.761-10.761s-4.828-10.761-10.761-10.761zm28.082 22.521c-6.485 0-11.761-5.276-11.761-11.761s5.276-11.761 11.761-11.761 11.761 5.276 11.761 11.761-5.276 11.761-11.761 11.761zm0-22.521c-5.934 0-10.761 4.827-10.761 10.761s4.827 10.761 10.761 10.761c5.933 0 10.761-4.827 10.761-10.761s-4.827-10.761-10.761-10.761z"/><path d="M340.816 114.547h5.561v1h-5.561z"/></g><path d="M374.573 80.711c0-9.48-7.213-17.164-16.111-17.164h-28.483c-20.007 0-33.282-7.64-33.282-17.065v25.697c0 15.512 11.804 28.087 26.364 28.087h20.194c5.68 0 10.284-4.905 10.284-10.956 0 5.941 4.521 10.757 10.097 10.757h10.845c-.002 0 .092-18.99.092-19.356z" fill="url(#p)"/><path d="M428.153 154.926c-6.69-2.477-12.474-3.76-38.728-2.483l-33.308.053c.061.332.083 2.198.085 4.591.006 7.009-5.653 12.711-12.662 12.748-7.055.036-12.793-5.672-12.793-12.727v-4.538s-49.172-.566-55.246-.343-14.751-.285-28.925 8.671l-62.181 41.847 48.783 49.072 56.688-47.818-.186 58.545 106.246-.16.281-57.983 56.868 47.39 48.792-48.659c.001-.002-62.329-43.991-73.714-48.206z" fill="#4148ac"/><path d="m495.549 198.7-48.72 47.884a59.122 59.122 0 0 0 1.999 1.666l48.805-48.11zm-258.436 49.796-48.971-48.274 3.188-2.145 48.75 47.917zm73.193-96.137.001 32.06 33.232-14.583c-9.152-.749-12.99-7.344-12.793-17.893-7.762.328-13.544.345-20.44.416zm66.251.105-.001 31.88-33.017-14.509c9.152-.749 13.197-7.48 12.577-17.893 5.576 0 13.455.37 20.441.522z" fill="#fff"/></svg></g><g transform="translate(1304.0 801.0) rotate(0.0 775.5 226.5) scale(3.5793987256325104 3.581537293844183)"><svg width="433.313" height="126.482" viewBox="0 0 433.313 126.482"><path d="M68.946 0h351.346c7.191 0 13.021 5.83 13.021 13.021 0 7.191-5.83 13.021-13.021 13.021H68.946c-7.191 0-13.021-5.83-13.021-13.021C55.925 5.83 61.754 0 68.946 0z" fill="#4148ac"/><path d="M197.826 50.759h226.561a8.926 8.926 0 0 0 8.926-8.926 8.926 8.926 0 0 0-8.926-8.926H197.826a8.926 8.926 0 0 0 0 17.852z"/><path d="M0 109.216h123.843v17.266H0z" fill="#fff"/></svg></g><g transform="translate(383.0 263.0) rotate(0.0 238.0 219.5) scale(3.6083841867869464 3.618768135056713)"><svg width="131.915" height="121.312" viewBox="0 0 131.915 121.312"><linearGradient id="q" gradientUnits="userSpaceOnUse" x1="115.128" x2="29.085" y1="109.798" y2="14.939"><stop offset="0" stop-color="#9c56b6"/><stop offset="1" stop-color="#daabe0"/></linearGradient><linearGradient id="r" gradientUnits="userSpaceOnUse" x1="65.322" x2="121.811" y1="35.368" y2="35.368"><stop offset=".201" stop-color="#2f8f71"/><stop offset=".994" stop-color="#1a614b"/></linearGradient><path d="M131.915 121.312H0V0h131.915zM3 118.312h125.915V3H3z"/><path d="M63.801 59.084h58.011v52.21H63.801z" fill="url(#q)"/><path d="M9.982 9.996h55.34v50.745H9.982z"/><path d="M9.982 60.741h55.34v50.553H9.982z" fill="#4148ac"/><path d="M65.322 9.996h56.489v50.745H65.322z" fill="url(#r)"/></svg></g></svg>